<svg width="32" height="28" viewBox="0 0 32 28" fill="none" xmlns="http://www.w3.org/2000/svg">
<path d="M15.8666 25.4737L21.9333 11.579H24.7333L30.8 25.4737H28L26.5667 21.9421H20.1L18.6666 25.4737H15.8666ZM5.33331 22L3.46665 20.379L10.2 14.5316C9.4222 13.8561 8.71665 13.0842 8.08331 12.2158C7.44998 11.3474 6.86665 10.3632 6.33331 9.26316H9.13331C9.57776 10.0158 10.0222 10.6719 10.4666 11.2316C10.9111 11.7912 11.4444 12.3509 12.0666 12.9105C12.8 12.2737 13.5611 11.3811 14.35 10.2329C15.1389 9.08465 15.7333 7.98948 16.1333 6.94737H1.33331V4.63159H10.6666V2.3158H13.3333V4.63159H22.6666V6.94737H18.8C18.3333 8.33685 17.6333 9.76492 16.7 11.2316C15.7666 12.6983 14.8444 13.8175 13.9333 14.5895L17.1333 17.4263L16.1333 19.8L12.0666 16.1816L5.33331 22ZM20.9333 19.9158H25.7333L23.3333 14.0105L20.9333 19.9158Z" fill="#E8EAED"/>
</svg>
