<svg width="50" height="50" viewBox="0 0 50 50" fill="none" xmlns="http://www.w3.org/2000/svg">
<path d="M12.1875 35.625C13.9584 34.2708 15.9375 33.2031 18.125 32.4219C20.3125 31.6406 22.6042 31.25 25 31.25C27.3959 31.25 29.6875 31.6406 31.875 32.4219C34.0625 33.2031 36.0417 34.2708 37.8125 35.625C39.0278 34.2014 39.974 32.5868 40.6511 30.7812C41.3281 28.9757 41.6667 27.0486 41.6667 25C41.6667 20.3819 40.0434 16.4496 36.7969 13.2031C33.5504 9.95659 29.6181 8.33332 25 8.33332C20.382 8.33332 16.4497 9.95659 13.2031 13.2031C9.95662 16.4496 8.33335 20.3819 8.33335 25C8.33335 27.0486 8.6719 28.9757 9.34898 30.7812C10.0261 32.5868 10.9722 34.2014 12.1875 35.625ZM25 27.0833C22.9514 27.0833 21.224 26.3802 19.8177 24.9739C18.4115 23.5677 17.7084 21.8403 17.7084 19.7917C17.7084 17.743 18.4115 16.0156 19.8177 14.6094C21.224 13.2031 22.9514 12.5 25 12.5C27.0486 12.5 28.7761 13.2031 30.1823 14.6094C31.5886 16.0156 32.2917 17.743 32.2917 19.7917C32.2917 21.8403 31.5886 23.5677 30.1823 24.9739C28.7761 26.3802 27.0486 27.0833 25 27.0833ZM25 45.8333C22.1181 45.8333 19.4097 45.2864 16.875 44.1927C14.3403 43.0989 12.1354 41.6146 10.2604 39.7396C8.38544 37.8646 6.90106 35.6597 5.80731 33.125C4.71356 30.5903 4.16669 27.8819 4.16669 25C4.16669 22.118 4.71356 19.4097 5.80731 16.875C6.90106 14.3403 8.38544 12.1354 10.2604 10.2604C12.1354 8.38541 14.3403 6.90103 16.875 5.80728C19.4097 4.71353 22.1181 4.16666 25 4.16666C27.882 4.16666 30.5903 4.71353 33.125 5.80728C35.6597 6.90103 37.8646 8.38541 39.7396 10.2604C41.6146 12.1354 43.099 14.3403 44.1927 16.875C45.2865 19.4097 45.8334 22.118 45.8334 25C45.8334 27.8819 45.2865 30.5903 44.1927 33.125C43.099 35.6597 41.6146 37.8646 39.7396 39.7396C37.8646 41.6146 35.6597 43.0989 33.125 44.1927C30.5903 45.2864 27.882 45.8333 25 45.8333ZM25 41.6667C26.8403 41.6667 28.5764 41.3976 30.2084 40.8594C31.8403 40.3212 33.3334 39.5486 34.6875 38.5417C33.3334 37.5347 31.8403 36.7621 30.2084 36.2239C28.5764 35.6858 26.8403 35.4167 25 35.4167C23.1597 35.4167 21.4236 35.6858 19.7917 36.2239C18.1597 36.7621 16.6667 37.5347 15.3125 38.5417C16.6667 39.5486 18.1597 40.3212 19.7917 40.8594C21.4236 41.3976 23.1597 41.6667 25 41.6667ZM25 22.9167C25.9028 22.9167 26.6493 22.6215 27.2396 22.0312C27.8299 21.441 28.125 20.6944 28.125 19.7917C28.125 18.8889 27.8299 18.1424 27.2396 17.5521C26.6493 16.9618 25.9028 16.6667 25 16.6667C24.0972 16.6667 23.3507 16.9618 22.7604 17.5521C22.1702 18.1424 21.875 18.8889 21.875 19.7917C21.875 20.6944 22.1702 21.441 22.7604 22.0312C23.3507 22.6215 24.0972 22.9167 25 22.9167Z" fill="#E8EAED"/>
</svg>
